<svg width="33" height="32" viewBox="0 0 33 32" fill="none" xmlns="http://www.w3.org/2000/svg">
<g id="Globe">
<path id="Vector (Stroke)" fill-rule="evenodd" clip-rule="evenodd" d="M16.377 5C10.3018 5 5.37695 9.92487 5.37695 16C5.37695 22.0751 10.3018 27 16.377 27C22.4521 27 27.377 22.0751 27.377 16C27.377 9.92487 22.4521 5 16.377 5ZM3.37695 16C3.37695 8.8203 9.19725 3 16.377 3C23.5567 3 29.377 8.8203 29.377 16C29.377 23.1797 23.5567 29 16.377 29C9.19725 29 3.37695 23.1797 3.37695 16Z" fill="url(#paint0_linear_2868_237)"/>
<path id="Vector (Stroke)_2" fill-rule="evenodd" clip-rule="evenodd" d="M4.06445 12C4.06445 11.4477 4.51217 11 5.06445 11H27.6895C28.2417 11 28.6895 11.4477 28.6895 12C28.6895 12.5523 28.2417 13 27.6895 13H5.06445C4.51217 13 4.06445 12.5523 4.06445 12Z" fill="url(#paint1_linear_2868_237)"/>
<path id="Vector (Stroke)_3" fill-rule="evenodd" clip-rule="evenodd" d="M4.06445 20C4.06445 19.4477 4.51217 19 5.06445 19H27.6895C28.2417 19 28.6895 19.4477 28.6895 20C28.6895 20.5523 28.2417 21 27.6895 21H5.06445C4.51217 21 4.06445 20.5523 4.06445 20Z" fill="url(#paint2_linear_2868_237)"/>
<path id="Vector (Stroke)_4" fill-rule="evenodd" clip-rule="evenodd" d="M13.7607 8.13743C12.9208 10.0985 12.377 12.8774 12.377 15.9992C12.377 19.1211 12.9208 21.9 13.7607 23.861C14.1814 24.8433 14.6566 25.5743 15.1334 26.0452C15.6059 26.5119 16.025 26.6742 16.377 26.6742C16.7289 26.6742 17.148 26.5119 17.6205 26.0452C18.0973 25.5743 18.5725 24.8433 18.9932 23.861C19.8331 21.9 20.377 19.1211 20.377 15.9992C20.377 12.8774 19.8331 10.0985 18.9932 8.13743C18.5725 7.15511 18.0973 6.42409 17.6205 5.95319C17.148 5.48653 16.7289 5.32422 16.377 5.32422C16.025 5.32422 15.6059 5.48653 15.1334 5.95319C14.6566 6.42409 14.1814 7.15511 13.7607 8.13743ZM13.728 4.5302C14.4519 3.8153 15.3482 3.32422 16.377 3.32422C17.4057 3.32422 18.302 3.8153 19.0259 4.5302C19.7455 5.24088 20.3476 6.21962 20.8317 7.35007C21.8015 9.61453 22.377 12.6732 22.377 15.9992C22.377 19.3253 21.8015 22.3839 20.8317 24.6484C20.3476 25.7788 19.7455 26.7576 19.0259 27.4682C18.302 28.1831 17.4057 28.6742 16.377 28.6742C15.3482 28.6742 14.4519 28.1831 13.728 27.4682C13.0085 26.7576 12.4063 25.7788 11.9222 24.6484C10.9524 22.3839 10.377 19.3253 10.377 15.9992C10.377 12.6732 10.9524 9.61453 11.9222 7.35007C12.4063 6.21962 13.0085 5.24088 13.728 4.5302Z" fill="url(#paint3_linear_2868_237)"/>
</g>
<defs>
<linearGradient id="paint0_linear_2868_237" x1="7.58648" y1="3" x2="32.7287" y2="7.84886" gradientUnits="userSpaceOnUse">
<stop stop-color="#A259FF"/>
<stop offset="1" stop-color="#FF6250"/>
</linearGradient>
<linearGradient id="paint1_linear_2868_237" x1="8.05136" y1="11" x2="11.7718" y2="19.8344" gradientUnits="userSpaceOnUse">
<stop stop-color="#A259FF"/>
<stop offset="1" stop-color="#FF6250"/>
</linearGradient>
<linearGradient id="paint2_linear_2868_237" x1="8.05136" y1="19" x2="11.7718" y2="27.8344" gradientUnits="userSpaceOnUse">
<stop stop-color="#A259FF"/>
<stop offset="1" stop-color="#FF6250"/>
</linearGradient>
<linearGradient id="paint3_linear_2868_237" x1="12.3198" y1="3.32421" x2="24.256" y2="4.41391" gradientUnits="userSpaceOnUse">
<stop stop-color="#A259FF"/>
<stop offset="1" stop-color="#FF6250"/>
</linearGradient>
</defs>
</svg>
